# xmcd
#
# Track frame offsets:
#	150
#	19491
#	35174
#	63838
#	76752
#	97726
#	125894
#	146446
#	163074
#
# Disc length: 2412 seconds
#
# Revision: 1
# Processed by: cddbd v1.5.2PL0 Copyright (c) Steve Scherf et al.
# Submitted via: audiograbber 1.81.03
#
DISCID=74096a09
DTITLE=Henry`Oden - Henry`Oden
DYEAR=2004
DGENRE=Blues
TTITLE0=You Just Don't Know
TTITLE1=Best Choice
TTITLE2=Madame Zorra And Sister Rose
TTITLE3=Seventy-One Thousand Seven Hundred And Thirty
TTITLE4=Book Of Lies
TTITLE5=Even If It's Wrong
TTITLE6=On Me
TTITLE7=I Didn't Mean To Hurt You
TTITLE8=Rock
EXTD=
EXTT0=
EXTT1=
EXTT2=
EXTT3=
EXTT4=
EXTT5=
EXTT6=
EXTT7=
EXTT8=
PLAYORDER=
